<svg width="34" height="32" viewBox="0 0 34 32" fill="none" xmlns="http://www.w3.org/2000/svg">
<path d="M17 31.5L14.5834 29.3333C11.7778 26.8055 9.45837 24.625 7.62504 22.7917C5.79171 20.9583 4.33337 19.3125 3.25004 17.8542C2.16671 16.3958 1.40976 15.0555 0.979207 13.8333C0.548652 12.6111 0.333374 11.3611 0.333374 10.0833C0.333374 7.47221 1.20837 5.29166 2.95837 3.54166C4.70837 1.79166 6.88893 0.916656 9.50004 0.916656C10.9445 0.916656 12.3195 1.22221 13.625 1.83332C14.9306 2.44443 16.0556 3.30555 17 4.41666C17.9445 3.30555 19.0695 2.44443 20.375 1.83332C21.6806 1.22221 23.0556 0.916656 24.5 0.916656C27.1112 0.916656 29.2917 1.79166 31.0417 3.54166C32.7917 5.29166 33.6667 7.47221 33.6667 10.0833C33.6667 11.3611 33.4514 12.6111 33.0209 13.8333C32.5903 15.0555 31.8334 16.3958 30.75 17.8542C29.6667 19.3125 28.2084 20.9583 26.375 22.7917C24.5417 24.625 22.2223 26.8055 19.4167 29.3333L17 31.5ZM17 27C19.6667 24.6111 21.8612 22.5625 23.5834 20.8542C25.3056 19.1458 26.6667 17.6597 27.6667 16.3958C28.6667 15.1319 29.3612 14.0069 29.75 13.0208C30.1389 12.0347 30.3334 11.0555 30.3334 10.0833C30.3334 8.41666 29.7778 7.02777 28.6667 5.91666C27.5556 4.80555 26.1667 4.24999 24.5 4.24999C23.1945 4.24999 21.9862 4.61805 20.875 5.35416C19.7639 6.09027 19 7.02777 18.5834 8.16666H15.4167C15 7.02777 14.2362 6.09027 13.125 5.35416C12.0139 4.61805 10.8056 4.24999 9.50004 4.24999C7.83337 4.24999 6.44448 4.80555 5.33337 5.91666C4.22226 7.02777 3.66671 8.41666 3.66671 10.0833C3.66671 11.0555 3.86115 12.0347 4.25004 13.0208C4.63893 14.0069 5.33337 15.1319 6.33337 16.3958C7.33337 17.6597 8.69448 19.1458 10.4167 20.8542C12.1389 22.5625 14.3334 24.6111 17 27Z" fill="white"/>
</svg>
