<svg width="41" height="41" viewBox="0 0 41 41" fill="none" xmlns="http://www.w3.org/2000/svg">
<path d="M28.6667 37.1667C27.2779 37.1667 26.0973 36.6806 25.1251 35.7083C24.1529 34.7361 23.6667 33.5556 23.6667 32.1667C23.6667 32 23.7084 31.6111 23.7917 31L12.0834 24.1667C11.639 24.5833 11.1251 24.9097 10.5417 25.1458C9.95842 25.3819 9.33342 25.5 8.66675 25.5C7.27786 25.5 6.0973 25.0139 5.12508 24.0417C4.15286 23.0694 3.66675 21.8889 3.66675 20.5C3.66675 19.1111 4.15286 17.9306 5.12508 16.9583C6.0973 15.9861 7.27786 15.5 8.66675 15.5C9.33342 15.5 9.95842 15.6181 10.5417 15.8542C11.1251 16.0903 11.639 16.4167 12.0834 16.8333L23.7917 10C23.7362 9.80556 23.7015 9.61806 23.6876 9.4375C23.6737 9.25695 23.6667 9.05556 23.6667 8.83334C23.6667 7.44445 24.1529 6.26389 25.1251 5.29167C26.0973 4.31945 27.2779 3.83334 28.6667 3.83334C30.0556 3.83334 31.2362 4.31945 32.2084 5.29167C33.1806 6.26389 33.6667 7.44445 33.6667 8.83334C33.6667 10.2222 33.1806 11.4028 32.2084 12.375C31.2362 13.3472 30.0556 13.8333 28.6667 13.8333C28.0001 13.8333 27.3751 13.7153 26.7917 13.4792C26.2084 13.2431 25.6945 12.9167 25.2501 12.5L13.5417 19.3333C13.5973 19.5278 13.632 19.7153 13.6459 19.8958C13.6598 20.0764 13.6667 20.2778 13.6667 20.5C13.6667 20.7222 13.6598 20.9236 13.6459 21.1042C13.632 21.2847 13.5973 21.4722 13.5417 21.6667L25.2501 28.5C25.6945 28.0833 26.2084 27.7569 26.7917 27.5208C27.3751 27.2847 28.0001 27.1667 28.6667 27.1667C30.0556 27.1667 31.2362 27.6528 32.2084 28.625C33.1806 29.5972 33.6667 30.7778 33.6667 32.1667C33.6667 33.5556 33.1806 34.7361 32.2084 35.7083C31.2362 36.6806 30.0556 37.1667 28.6667 37.1667ZM28.6667 33.8333C29.139 33.8333 29.5348 33.6736 29.8542 33.3542C30.1737 33.0347 30.3334 32.6389 30.3334 32.1667C30.3334 31.6944 30.1737 31.2986 29.8542 30.9792C29.5348 30.6597 29.139 30.5 28.6667 30.5C28.1945 30.5 27.7987 30.6597 27.4792 30.9792C27.1598 31.2986 27.0001 31.6944 27.0001 32.1667C27.0001 32.6389 27.1598 33.0347 27.4792 33.3542C27.7987 33.6736 28.1945 33.8333 28.6667 33.8333ZM8.66675 22.1667C9.13897 22.1667 9.5348 22.0069 9.85425 21.6875C10.1737 21.3681 10.3334 20.9722 10.3334 20.5C10.3334 20.0278 10.1737 19.6319 9.85425 19.3125C9.5348 18.9931 9.13897 18.8333 8.66675 18.8333C8.19453 18.8333 7.79869 18.9931 7.47925 19.3125C7.1598 19.6319 7.00008 20.0278 7.00008 20.5C7.00008 20.9722 7.1598 21.3681 7.47925 21.6875C7.79869 22.0069 8.19453 22.1667 8.66675 22.1667ZM28.6667 10.5C29.139 10.5 29.5348 10.3403 29.8542 10.0208C30.1737 9.70139 30.3334 9.30556 30.3334 8.83334C30.3334 8.36111 30.1737 7.96528 29.8542 7.64584C29.5348 7.32639 29.139 7.16667 28.6667 7.16667C28.1945 7.16667 27.7987 7.32639 27.4792 7.64584C27.1598 7.96528 27.0001 8.36111 27.0001 8.83334C27.0001 9.30556 27.1598 9.70139 27.4792 10.0208C27.7987 10.3403 28.1945 10.5 28.6667 10.5Z" fill="white"/>
</svg>
